<svg width="263" height="296" viewBox="0 0 263 296" fill="none" xmlns="http://www.w3.org/2000/svg">
<g clip-path="url(#clip0_1_481)">
<path d="M187.5 9.52918C190.081 9.46419 192.434 11.2943 193.625 13.5804C194.816 15.8666 195.032 18.5323 194.972 21.1083C194.912 23.6843 194.6 26.2643 194.827 28.8309C195.311 34.2912 198.374 39.4685 202.93 42.5295C201.213 42.6624 199.527 41.8685 198.23 40.7378C196.932 39.6072 195.961 38.1586 195.006 36.7282C194.197 35.5178 193.384 34.2992 192.804 32.9648C191.954 31.0099 191.63 28.8738 191.325 26.7646C190.572 21.5715 189.879 16.3699 189.243 11.1612" fill="#2F2E41"/>
<path d="M143.772 289.611L152.482 289.61L156.626 256.081L143.77 256.082L143.772 289.611Z" fill="#FFB6B6"/>
<path d="M173.615 289.413C173.886 289.869 174.029 291.341 174.029 291.871C174.029 293.5 172.705 294.821 171.073 294.821H144.098C142.984 294.821 142.081 293.92 142.081 292.808V291.687C142.081 291.687 140.746 288.319 143.494 284.167C143.494 284.167 146.908 287.418 152.011 282.326L153.515 279.606L164.407 287.555L170.443 288.297C171.764 288.459 172.935 288.272 173.615 289.413Z" fill="#2F2E41"/>
<path d="M181.362 283.281L189.829 285.319L201.74 253.697L189.243 250.688L181.362 283.281Z" fill="#FFB6B6"/>
<path d="M210.418 290.077C210.574 290.583 210.367 292.047 210.243 292.562C209.86 294.146 208.263 295.12 206.675 294.738L180.454 288.422C179.371 288.161 178.705 287.074 178.966 285.993L179.23 284.904C179.23 284.904 178.725 281.317 182.371 277.924C182.371 277.924 184.926 281.884 191.083 278.129L193.185 275.837L201.904 286.114L207.598 288.249C208.843 288.715 210.026 288.807 210.418 290.077Z" fill="#2F2E41"/>
<path d="M231.876 122.255C230.253 120.942 229.062 119.371 228.396 117.823L212.143 106.284L217.871 98.7262L233.741 111.245C235.397 111.576 237.182 112.415 238.805 113.729C242.513 116.73 243.967 121.071 242.054 123.426C240.14 125.78 235.583 125.256 231.876 122.255Z" fill="#FFB6B6"/>
<path d="M228.878 105.26L228.119 106.809L224.181 114.83L223.017 117.196L211.563 106.933L202.353 98.6825L180.705 79.2874C179.203 77.9422 178.469 76.1159 178.469 74.2981C178.469 72.1228 179.519 69.9644 181.545 68.6532C182.799 67.8401 184.288 67.4698 185.777 67.5975C189.292 67.8997 196.373 68.5468 203.885 69.4408L206.47 76.9077L205.203 83.6168L201.756 82.5994L204.896 85.226L228.878 105.26Z" fill="#C10000"/>
<path d="M160.399 97.3427C162.068 97.3526 165.568 119.916 162.958 123.311C160.817 126.096 200.057 123.311 200.057 123.311C196.368 122.562 198.028 98.4571 201.992 97.3427L178.315 90.1057L160.399 97.3427Z" fill="#FFB6B6"/>
<path d="M198.314 120.267H163.429C163.429 120.267 148.881 143.319 148.881 188.018L142.909 259.962L157.839 260.814L181.896 163.288L195.116 211.168L185.993 262.247H200.45L217.564 204.65L214.147 174.395C214.147 174.395 210.584 132.821 198.314 120.267Z" fill="#2F2E41"/>
<path d="M206.47 76.9077L205.203 83.6168L204.896 85.226L202.353 98.6825L198.905 103.745C198.905 103.745 174.355 96.1495 162.838 105.515L153.575 75.6306L163.386 54.3453L171.064 50.0882L172.344 44.9797H188.609L191.113 50.0882L198.365 53.4939L203.885 69.4408L206.47 76.9077Z" fill="#C10000"/>
<path d="M201.531 52.6092C200.202 54.2183 198.619 55.3944 197.062 56.0466L185.369 72.1733L177.843 66.3964L190.514 50.6594C190.859 49.01 191.713 47.2347 193.043 45.6256C196.079 41.9497 200.441 40.5331 202.785 42.4616C205.129 44.3901 204.568 48.9333 201.531 52.6092Z" fill="#FFB6B6"/>
<path d="M170.01 54.6148C170.01 54.6148 157.628 47.8209 153.608 54.6148C150.177 60.4114 147.196 89.7002 146.394 98.1739C146.254 99.6613 146.614 101.148 147.417 102.409C149.798 106.141 155.081 106.598 158.069 103.33L196.391 61.4087L184.477 55.464L164.054 76.6949L170.01 54.6148Z" fill="#C10000"/>
<path d="M178.508 41.7316C187.107 41.7316 194.078 34.7749 194.078 26.1934C194.078 17.6118 187.107 10.6551 178.508 10.6551C169.909 10.6551 162.938 17.6118 162.938 26.1934C162.938 34.7749 169.909 41.7316 178.508 41.7316Z" fill="#FFB6B6"/>
<path d="M190.498 17.7954C188.07 19.431 186.517 22.1721 186.122 26.2569C184.598 25.0485 184.372 22.8502 184.952 20.0376C183.891 22.9165 175.284 37.5685 174.717 42.2006C174.356 45.1509 175.539 48.1249 177.354 50.4793C179.051 52.6743 181.262 54.3973 183.527 56.0141C179.27 54.4622 175.722 51.0457 174.037 46.8444C171.601 40.7785 173.049 34.0281 174.965 27.6731C174.516 28.5169 173.871 30.057 173.126 30.6588C172.168 31.4318 171.033 31.1899 170.264 32.1517C169.33 33.3201 169.153 34.9545 169.443 36.4238C169.738 37.8931 170.448 39.2384 171.145 40.5602C161.274 38.7078 158.339 27.4485 162.85 19.7779C159.964 24.9469 159.338 35.3558 163.009 39.9937C165.067 42.5959 168.047 44.6258 169.076 47.7768C169.797 49.9895 169.401 52.456 168.408 54.5626C167.415 56.6691 165.859 58.4629 164.216 60.1151C163.542 60.7937 162.85 61.4487 162.129 62.0859C161.331 61.2757 159.979 61.659 159.684 62.7558C159.521 63.3651 159.262 63.9932 158.936 64.635C156.014 65.2967 152.07 64.3783 151.468 68.4764C151.307 69.5694 149.327 69.0842 148.228 69.2612C148.524 68.4384 147.567 67.7101 146.868 68.2364C145.953 68.9242 144.98 69.3273 143.959 69.4972C141.357 69.3556 138.809 68.6947 136.55 67.4084C143.752 62.9297 150.07 64.2221 152.884 56.2326C153.325 54.9828 153.467 52.3759 153.459 49.4434C153.442 42.7946 151.875 36.2681 149.176 30.189C148.847 29.4474 148.596 28.7308 148.488 28.1038C147.701 23.578 148.925 17.3586 150.912 14.4319C152.899 11.5111 156.334 9.62285 159.876 9.52845C161.644 9.47533 162.696 10.2483 164.257 9.41634C165.924 8.52533 166.315 9.69365 167.444 8.18307C169.46 5.48645 172.896 4.0939 176.266 3.97588C179.636 3.85786 181.522 2.91939 184.585 4.32967C186.519 5.22068 188.745 10.2121 190.876 10.2425C195.288 10.3054 196.134 13.9981 190.498 17.7954Z" fill="#2F2E41"/>
<path d="M184.017 56.3623C183.852 56.2443 183.692 56.1321 183.527 56.0141C183.657 56.0672 183.787 56.1144 183.917 56.1557L184.017 56.3623Z" fill="#2F2E41"/>
<path d="M259.94 119.526C257.483 116.631 253.893 114.97 250.091 114.97H235.148C231.222 114.97 227.557 116.721 225.094 119.773C222.632 122.825 221.7 126.772 222.538 130.6L225.799 145.502C224.998 147.549 224.554 149.774 224.554 152.104C224.554 162.142 232.708 170.279 242.766 170.279C252.824 170.279 260.978 162.142 260.978 152.104C260.978 150.126 260.658 148.224 260.072 146.442L262.823 129.969C263.448 126.227 262.398 122.42 259.94 119.526ZM242.766 133.929C237.467 133.929 232.699 136.189 229.371 139.794L227.139 129.597C226.607 127.166 227.199 124.659 228.763 122.721C230.327 120.782 232.654 119.671 235.148 119.671H250.091C252.506 119.671 254.786 120.725 256.346 122.564C257.907 124.402 258.574 126.82 258.177 129.197L256.369 140.024C253.034 136.286 248.177 133.929 242.766 133.929Z" fill="#3F3D56"/>
<path d="M91.8267 255.507C89.8998 253.237 87.0849 251.935 84.1038 251.935H72.3861C69.3071 251.935 66.4335 253.308 64.5025 255.701C62.5714 258.094 61.8406 261.189 62.4975 264.191L65.0547 275.876C64.427 277.481 64.0788 279.226 64.0788 281.053C64.0788 288.924 70.4726 295.305 78.3598 295.305C86.247 295.305 92.6409 288.924 92.6409 281.053C92.6409 279.502 92.3893 278.011 91.9304 276.613L94.0877 263.697C94.5777 260.762 93.7537 257.777 91.8267 255.507ZM78.3598 266.801C74.2046 266.801 70.4653 268.574 67.8556 271.4L66.1058 263.405C65.6886 261.498 66.1528 259.533 67.3792 258.013C68.6057 256.493 70.4306 255.621 72.3861 255.621H84.1038C85.9971 255.621 87.7849 256.448 89.0087 257.889C90.2325 259.331 90.7558 261.227 90.4446 263.091L89.0267 271.581C86.411 268.649 82.6025 266.801 78.3598 266.801Z" fill="#3F3D56"/>
<path d="M165.78 11.1016L164.65 10.7523C164.819 6.79797 165.89 3.19792 167.986 0L169.115 0.349203L165.78 11.1016Z" fill="#C10000"/>
<path d="M165.786 9.71805L165.06 10.6497L156.154 3.74377L156.88 2.81213C160.811 4.19742 163.681 6.59398 165.786 9.71805Z" fill="#C10000"/>
<path d="M217.324 285.772C218.545 285.849 219.221 284.334 218.296 283.451L218.204 283.087C218.217 283.057 218.229 283.028 218.241 282.999C219.476 280.059 223.663 280.08 224.888 283.024C225.975 285.637 227.359 288.254 227.7 291.017C227.852 292.236 227.784 293.479 227.513 294.675C230.06 289.123 231.4 283.059 231.4 276.961C231.4 275.429 231.316 273.897 231.144 272.369C231.003 271.119 230.808 269.876 230.556 268.645C229.193 261.991 226.241 255.653 221.983 250.359C219.936 249.242 218.229 247.497 217.198 245.405C216.827 244.65 216.537 243.838 216.399 243.011C216.632 243.042 217.278 239.501 217.102 239.284C217.427 238.792 218.008 238.548 218.362 238.068C220.126 235.682 222.555 236.099 223.823 239.341C226.533 240.706 226.559 242.969 224.897 245.145C223.839 246.53 223.694 248.404 222.766 249.886C222.861 250.008 222.96 250.127 223.056 250.249C224.807 252.49 226.321 254.898 227.597 257.429C227.237 254.616 227.769 251.228 228.677 249.044C229.711 246.556 231.648 244.46 233.355 242.309C235.404 239.725 239.606 240.852 239.967 244.128C239.971 244.16 239.974 244.191 239.978 244.223C239.724 244.366 239.476 244.517 239.233 244.677C237.85 245.59 238.328 247.73 239.967 247.983L240.004 247.988C239.913 248.899 239.756 249.803 239.527 250.691C241.716 259.138 236.99 262.215 230.243 262.353C230.094 262.429 229.949 262.505 229.8 262.578C230.484 264.499 231.03 266.469 231.435 268.466C231.797 270.231 232.05 272.014 232.191 273.805C232.366 276.065 232.351 278.337 232.16 280.593L232.172 280.513C232.657 278.028 234.009 275.707 235.972 274.099C238.896 271.702 243.027 270.819 246.182 268.892C247.7 267.964 249.646 269.163 249.381 270.92L249.369 271.004C248.899 271.195 248.441 271.416 247.998 271.664C247.744 271.806 247.496 271.958 247.253 272.118C245.87 273.031 246.348 275.171 247.987 275.423L248.024 275.429C248.051 275.433 248.074 275.437 248.101 275.44C247.295 277.35 246.172 279.122 244.767 280.65C243.398 288.025 237.52 288.724 231.232 286.577H231.228C230.541 289.565 229.537 292.484 228.246 295.266H217.591C217.553 295.148 217.518 295.026 217.484 294.908C218.469 294.969 219.462 294.912 220.432 294.733C219.642 293.765 218.851 292.789 218.061 291.821C218.042 291.802 218.026 291.783 218.011 291.764C217.61 291.268 217.205 290.777 216.804 290.281L216.804 290.281C216.779 288.76 216.962 287.244 217.324 285.772Z" fill="#F2F2F2"/>
<path d="M0 295.298C0 295.687 0.313393 296 0.703653 296H248.619C249.01 296 249.323 295.687 249.323 295.298C249.323 294.908 249.01 294.596 248.619 294.596H0.703653C0.313393 294.596 0 294.908 0 295.298Z" fill="#CCCCCC"/>
</g>
<defs>
<clipPath id="clip0_1_481">
<rect width="263" height="296" fill="white"/>
</clipPath>
</defs>
</svg>
