<svg width="72" height="56" viewBox="0 0 72 56" fill="none" xmlns="http://www.w3.org/2000/svg">
<path d="M12.9883 14.2773H4.9707V11.7188H12.9883V14.2773ZM14.1309 20H4.9707C4.61914 20 4.23503 19.9382 3.81836 19.8145C3.40169 19.6908 3.01432 19.4889 2.65625 19.209C2.30469 18.9225 2.00846 18.5547 1.76758 18.1055C1.5332 17.6497 1.41602 17.0931 1.41602 16.4355V7.27539C1.41602 7.09961 1.44857 6.93359 1.51367 6.77734C1.57878 6.62109 1.66667 6.48438 1.77734 6.36719C1.89453 6.25 2.03125 6.15885 2.1875 6.09375C2.34375 6.02865 2.51302 5.99609 2.69531 5.99609H14.1309V8.53516H3.95508V16.4355C3.95508 16.7676 4.04297 17.0215 4.21875 17.1973C4.39453 17.373 4.65169 17.4609 4.99023 17.4609H14.1309V20ZM27.1484 16.5039C27.1484 16.8555 27.0866 17.2363 26.9629 17.6465C26.8392 18.0501 26.6374 18.4277 26.3574 18.7793C26.084 19.1243 25.7227 19.4141 25.2734 19.6484C24.8307 19.8828 24.2904 20 23.6523 20H19.0723C18.7207 20 18.3398 19.9382 17.9297 19.8145C17.526 19.6908 17.1484 19.4922 16.7969 19.2188C16.4518 18.9388 16.1621 18.5775 15.9277 18.1348C15.6934 17.6855 15.5762 17.1419 15.5762 16.5039C15.5762 16.1523 15.638 15.7715 15.7617 15.3613C15.8854 14.9512 16.084 14.5736 16.3574 14.2285C16.6374 13.877 16.9987 13.584 17.4414 13.3496C17.8906 13.1152 18.4342 12.998 19.0723 12.998H23.6523V15.4199H19.0723C18.7272 15.4199 18.4603 15.5273 18.2715 15.7422C18.0827 15.9505 17.9883 16.2109 17.9883 16.5234C17.9883 16.8555 18.0957 17.1159 18.3105 17.3047C18.5319 17.487 18.7923 17.5781 19.0918 17.5781H23.6523C23.9974 17.5781 24.2643 17.474 24.4531 17.2656C24.6419 17.0573 24.7363 16.7969 24.7363 16.4844V12.9395C24.7363 12.6074 24.6322 12.3438 24.4238 12.1484C24.222 11.9531 23.9648 11.8555 23.6523 11.8555H18.0762V9.44336H23.6523C24.0039 9.44336 24.3815 9.50521 24.7852 9.62891C25.1953 9.7526 25.5729 9.95443 25.918 10.2344C26.2695 10.5078 26.5625 10.8691 26.7969 11.3184C27.0312 11.7611 27.1484 12.3014 27.1484 12.9395V16.5039ZM39.5215 16.4355C39.5215 16.8717 39.4661 17.2656 39.3555 17.6172C39.2448 17.9622 39.0983 18.2682 38.916 18.5352C38.7337 18.7956 38.5221 19.0202 38.2812 19.209C38.0404 19.3913 37.7865 19.541 37.5195 19.6582C37.2591 19.7754 36.9922 19.8633 36.7188 19.9219C36.4518 19.974 36.1979 20 35.957 20H29.082V17.4609H35.9375C36.2826 17.4609 36.543 17.373 36.7188 17.1973C36.8945 17.0215 36.9824 16.7676 36.9824 16.4355C36.9499 15.7585 36.6081 15.4199 35.957 15.4199H32.0215C31.4616 15.4199 30.9863 15.3223 30.5957 15.127C30.2051 14.9316 29.8861 14.6875 29.6387 14.3945C29.3978 14.1016 29.222 13.7858 29.1113 13.4473C29.0072 13.1087 28.9551 12.793 28.9551 12.5C28.9551 11.9336 29.056 11.4583 29.2578 11.0742C29.4596 10.6836 29.7135 10.3678 30.0195 10.127C30.3255 9.88607 30.6576 9.71354 31.0156 9.60938C31.3737 9.4987 31.709 9.44336 32.0215 9.44336H38.2617V11.9824H32.041C31.9108 11.9824 31.8066 11.9987 31.7285 12.0312C31.6569 12.0573 31.6016 12.0964 31.5625 12.1484C31.5299 12.194 31.5104 12.2461 31.5039 12.3047C31.4974 12.3568 31.4941 12.4089 31.4941 12.4609C31.5007 12.5651 31.5202 12.6465 31.5527 12.7051C31.5853 12.7637 31.6243 12.806 31.6699 12.832C31.722 12.8581 31.7773 12.8743 31.8359 12.8809C31.901 12.8809 31.9629 12.8809 32.0215 12.8809H35.957C36.6081 12.8809 37.1615 12.998 37.6172 13.2324C38.0729 13.4668 38.4408 13.763 38.7207 14.1211C39.0007 14.4727 39.2025 14.8568 39.3262 15.2734C39.4564 15.6901 39.5215 16.0775 39.5215 16.4355ZM52.9492 21.0156C52.9492 21.4518 52.8939 21.8424 52.7832 22.1875C52.6725 22.5391 52.526 22.8451 52.3438 23.1055C52.1615 23.3724 51.9499 23.597 51.709 23.7793C51.4681 23.9681 51.2142 24.1211 50.9473 24.2383C50.6868 24.3555 50.4232 24.4401 50.1562 24.4922C49.8893 24.5508 49.6354 24.5801 49.3945 24.5801H44.8145V22.041H49.3945C49.7331 22.041 49.987 21.9531 50.1562 21.7773C50.3255 21.6016 50.4102 21.3477 50.4102 21.0156V9.44336H52.9492V21.0156ZM49.3945 20H44.8145C44.4499 20 44.0592 19.9382 43.6426 19.8145C43.2324 19.6908 42.8483 19.4889 42.4902 19.209C42.1322 18.9225 41.8359 18.5547 41.6016 18.1055C41.3672 17.6497 41.25 17.0931 41.25 16.4355V9.44336H43.7891V16.4355C43.7891 16.7676 43.877 17.0215 44.0527 17.1973C44.2285 17.373 44.4889 17.4609 44.834 17.4609H49.3945V20ZM15.293 43.7207C15.293 43.903 15.2604 44.0723 15.1953 44.2285C15.1302 44.3848 15.0391 44.5215 14.9219 44.6387C14.8112 44.7493 14.6777 44.8372 14.5215 44.9023C14.3652 44.9674 14.196 45 14.0137 45H4.85352C4.61914 45 4.36523 44.974 4.0918 44.9219C3.82487 44.8633 3.55794 44.7754 3.29102 44.6582C3.0306 44.541 2.77995 44.3913 2.53906 44.209C2.29818 44.0202 2.08333 43.7956 1.89453 43.5352C1.71224 43.2682 1.56576 42.9622 1.45508 42.6172C1.3444 42.2656 1.28906 41.8717 1.28906 41.4355V34.5605C1.28906 34.3262 1.3151 34.0755 1.36719 33.8086C1.42578 33.5352 1.51367 33.2682 1.63086 33.0078C1.74805 32.7409 1.90104 32.487 2.08984 32.2461C2.27865 32.0052 2.50326 31.7936 2.76367 31.6113C3.0306 31.4225 3.33659 31.2728 3.68164 31.1621C4.02669 31.0514 4.41732 30.9961 4.85352 30.9961H15.1758V33.5352H4.85352C4.52148 33.5352 4.26758 33.623 4.0918 33.7988C3.91602 33.9746 3.82812 34.235 3.82812 34.5801V41.4355C3.82812 41.7611 3.91602 42.015 4.0918 42.1973C4.27409 42.373 4.52799 42.4609 4.85352 42.4609H12.7539V39.2773H5.99609V36.7188H14.0137C14.196 36.7188 14.3652 36.7546 14.5215 36.8262C14.6777 36.8913 14.8112 36.9824 14.9219 37.0996C15.0391 37.2168 15.1302 37.3535 15.1953 37.5098C15.2604 37.6595 15.293 37.8223 15.293 37.998V43.7207ZM28.5547 41.5039C28.5547 41.8555 28.4928 42.2363 28.3691 42.6465C28.2454 43.0501 28.0436 43.4277 27.7637 43.7793C27.4902 44.1243 27.1289 44.4141 26.6797 44.6484C26.237 44.8828 25.6966 45 25.0586 45H20.4785C20.127 45 19.7461 44.9382 19.3359 44.8145C18.9323 44.6908 18.5547 44.4922 18.2031 44.2188C17.8581 43.9388 17.5684 43.5775 17.334 43.1348C17.0996 42.6855 16.9824 42.1419 16.9824 41.5039C16.9824 41.1523 17.0443 40.7715 17.168 40.3613C17.2917 39.9512 17.4902 39.5736 17.7637 39.2285C18.0436 38.877 18.4049 38.584 18.8477 38.3496C19.2969 38.1152 19.8405 37.998 20.4785 37.998H25.0586V40.4199H20.4785C20.1335 40.4199 19.8665 40.5273 19.6777 40.7422C19.4889 40.9505 19.3945 41.2109 19.3945 41.5234C19.3945 41.8555 19.502 42.1159 19.7168 42.3047C19.9382 42.487 20.1986 42.5781 20.498 42.5781H25.0586C25.4036 42.5781 25.6706 42.474 25.8594 42.2656C26.0482 42.0573 26.1426 41.7969 26.1426 41.4844V37.9395C26.1426 37.6074 26.0384 37.3438 25.8301 37.1484C25.6283 36.9531 25.3711 36.8555 25.0586 36.8555H19.4824V34.4434H25.0586C25.4102 34.4434 25.7878 34.5052 26.1914 34.6289C26.6016 34.7526 26.9792 34.9544 27.3242 35.2344C27.6758 35.5078 27.9688 35.8691 28.2031 36.3184C28.4375 36.7611 28.5547 37.3014 28.5547 37.9395V41.5039ZM33.3008 32.2754H30.7617V29.9805H33.3008V32.2754ZM33.3008 45H30.7617V34.4434H33.3008V45ZM47.4414 45H44.9023V39.1406C44.9023 38.8086 44.8438 38.5124 44.7266 38.252C44.6159 37.985 44.4629 37.7572 44.2676 37.5684C44.0723 37.3796 43.8411 37.2363 43.5742 37.1387C43.3138 37.0345 43.0306 36.9824 42.7246 36.9824H38.2812V45H35.7422V35.7031C35.7422 35.5273 35.7747 35.3646 35.8398 35.2148C35.9049 35.0586 35.9961 34.9251 36.1133 34.8145C36.2305 34.6973 36.3672 34.6061 36.5234 34.541C36.6797 34.4759 36.8457 34.4434 37.0215 34.4434H42.7441C43.0632 34.4434 43.3984 34.4792 43.75 34.5508C44.1081 34.6224 44.4596 34.7396 44.8047 34.9023C45.1562 35.0586 45.4883 35.2604 45.8008 35.5078C46.1198 35.7487 46.3997 36.0449 46.6406 36.3965C46.888 36.7415 47.0833 37.1419 47.2266 37.5977C47.3698 38.0534 47.4414 38.5677 47.4414 39.1406V45ZM59.873 41.4355C59.873 41.8717 59.8177 42.2656 59.707 42.6172C59.5964 42.9622 59.4499 43.2682 59.2676 43.5352C59.0853 43.7956 58.8737 44.0202 58.6328 44.209C58.3919 44.3913 58.138 44.541 57.8711 44.6582C57.6107 44.7754 57.3438 44.8633 57.0703 44.9219C56.8034 44.974 56.5495 45 56.3086 45H49.4336V42.4609H56.2891C56.6341 42.4609 56.8945 42.373 57.0703 42.1973C57.2461 42.0215 57.334 41.7676 57.334 41.4355C57.3014 40.7585 56.9596 40.4199 56.3086 40.4199H52.373C51.8132 40.4199 51.3379 40.3223 50.9473 40.127C50.5566 39.9316 50.2376 39.6875 49.9902 39.3945C49.7493 39.1016 49.5736 38.7858 49.4629 38.4473C49.3587 38.1087 49.3066 37.793 49.3066 37.5C49.3066 36.9336 49.4076 36.4583 49.6094 36.0742C49.8112 35.6836 50.0651 35.3678 50.3711 35.127C50.6771 34.8861 51.0091 34.7135 51.3672 34.6094C51.7253 34.4987 52.0605 34.4434 52.373 34.4434H58.6133V36.9824H52.3926C52.2624 36.9824 52.1582 36.9987 52.0801 37.0312C52.0085 37.0573 51.9531 37.0964 51.9141 37.1484C51.8815 37.194 51.862 37.2461 51.8555 37.3047C51.849 37.3568 51.8457 37.4089 51.8457 37.4609C51.8522 37.5651 51.8717 37.6465 51.9043 37.7051C51.9368 37.7637 51.9759 37.806 52.0215 37.832C52.0736 37.8581 52.1289 37.8743 52.1875 37.8809C52.2526 37.8809 52.3145 37.8809 52.373 37.8809H56.3086C56.9596 37.8809 57.513 37.998 57.9688 38.2324C58.4245 38.4668 58.7923 38.763 59.0723 39.1211C59.3522 39.4727 59.554 39.8568 59.6777 40.2734C59.8079 40.6901 59.873 41.0775 59.873 41.4355Z" fill="#CE2929"/>
</svg>
